<mxfile host="app.diagrams.net" modified="2022-01-27T07:50:32.456Z" agent="5.0 (Windows NT 10.0; Win64; x64) AppleWebKit/537.36 (KHTML, like Gecko) Chrome/97.0.4692.71 Safari/537.36" etag="wt-1RR6EmHbA7EapHAUm" version="14.8.4" type="github">
  <diagram id="C5RBs43oDa-KdzZeNtuy" name="Page-1">
    <mxGraphModel dx="2889" dy="1122" grid="1" gridSize="10" guides="1" tooltips="1" connect="1" arrows="1" fold="1" page="1" pageScale="1" pageWidth="827" pageHeight="1169" math="0" shadow="0">
      <root>
        <mxCell id="WIyWlLk6GJQsqaUBKTNV-0" />
        <mxCell id="WIyWlLk6GJQsqaUBKTNV-1" parent="WIyWlLk6GJQsqaUBKTNV-0" />
        <mxCell id="nZmrJq0x39vUf4YxutHX-0" value="开始" style="strokeWidth=2;html=1;shape=mxgraph.flowchart.terminator;whiteSpace=wrap;" vertex="1" parent="WIyWlLk6GJQsqaUBKTNV-1">
          <mxGeometry x="-290" y="190" width="100" height="60" as="geometry" />
        </mxCell>
        <mxCell id="nZmrJq0x39vUf4YxutHX-10" style="edgeStyle=orthogonalEdgeStyle;rounded=0;orthogonalLoop=1;jettySize=auto;html=1;exitX=0;exitY=0.5;exitDx=0;exitDy=0;exitPerimeter=0;entryX=1;entryY=0.5;entryDx=0;entryDy=0;" edge="1" parent="WIyWlLk6GJQsqaUBKTNV-1" source="nZmrJq0x39vUf4YxutHX-1" target="nZmrJq0x39vUf4YxutHX-7">
          <mxGeometry relative="1" as="geometry" />
        </mxCell>
        <mxCell id="nZmrJq0x39vUf4YxutHX-14" style="edgeStyle=orthogonalEdgeStyle;rounded=0;orthogonalLoop=1;jettySize=auto;html=1;exitX=0.5;exitY=1;exitDx=0;exitDy=0;exitPerimeter=0;entryX=0.5;entryY=0;entryDx=0;entryDy=0;" edge="1" parent="WIyWlLk6GJQsqaUBKTNV-1" source="nZmrJq0x39vUf4YxutHX-1" target="nZmrJq0x39vUf4YxutHX-13">
          <mxGeometry relative="1" as="geometry" />
        </mxCell>
        <mxCell id="nZmrJq0x39vUf4YxutHX-1" value="终端" style="strokeWidth=2;html=1;shape=mxgraph.flowchart.delay;whiteSpace=wrap;" vertex="1" parent="WIyWlLk6GJQsqaUBKTNV-1">
          <mxGeometry x="-290" y="500" width="100" height="60" as="geometry" />
        </mxCell>
        <mxCell id="nZmrJq0x39vUf4YxutHX-6" style="edgeStyle=orthogonalEdgeStyle;rounded=0;orthogonalLoop=1;jettySize=auto;html=1;exitX=0.5;exitY=1;exitDx=0;exitDy=0;entryX=0.5;entryY=0;entryDx=0;entryDy=0;entryPerimeter=0;" edge="1" parent="WIyWlLk6GJQsqaUBKTNV-1" source="nZmrJq0x39vUf4YxutHX-2" target="nZmrJq0x39vUf4YxutHX-1">
          <mxGeometry relative="1" as="geometry" />
        </mxCell>
        <mxCell id="nZmrJq0x39vUf4YxutHX-2" value="安装" style="verticalLabelPosition=middle;verticalAlign=middle;html=1;shape=trapezoid;perimeter=trapezoidPerimeter;whiteSpace=wrap;size=0.23;arcSize=10;flipV=1;labelPosition=center;align=center;" vertex="1" parent="WIyWlLk6GJQsqaUBKTNV-1">
          <mxGeometry x="-290" y="340" width="100" height="60" as="geometry" />
        </mxCell>
        <mxCell id="nZmrJq0x39vUf4YxutHX-5" style="edgeStyle=orthogonalEdgeStyle;rounded=0;orthogonalLoop=1;jettySize=auto;html=1;exitX=0.5;exitY=1;exitDx=0;exitDy=0;exitPerimeter=0;entryX=0.5;entryY=0;entryDx=0;entryDy=0;" edge="1" parent="WIyWlLk6GJQsqaUBKTNV-1" target="nZmrJq0x39vUf4YxutHX-2">
          <mxGeometry relative="1" as="geometry">
            <mxPoint x="-240" y="250" as="sourcePoint" />
          </mxGeometry>
        </mxCell>
        <mxCell id="nZmrJq0x39vUf4YxutHX-32" style="edgeStyle=orthogonalEdgeStyle;rounded=0;orthogonalLoop=1;jettySize=auto;html=1;exitX=0.5;exitY=1;exitDx=0;exitDy=0;entryX=0.5;entryY=0;entryDx=0;entryDy=0;" edge="1" parent="WIyWlLk6GJQsqaUBKTNV-1" source="nZmrJq0x39vUf4YxutHX-7" target="nZmrJq0x39vUf4YxutHX-30">
          <mxGeometry relative="1" as="geometry" />
        </mxCell>
        <mxCell id="nZmrJq0x39vUf4YxutHX-7" value="文件上传/口头告诉" style="verticalLabelPosition=middle;verticalAlign=middle;html=1;shape=trapezoid;perimeter=trapezoidPerimeter;whiteSpace=wrap;size=0.23;arcSize=10;flipV=1;labelPosition=center;align=center;" vertex="1" parent="WIyWlLk6GJQsqaUBKTNV-1">
          <mxGeometry x="-540" y="500" width="100" height="60" as="geometry" />
        </mxCell>
        <mxCell id="nZmrJq0x39vUf4YxutHX-62" style="edgeStyle=orthogonalEdgeStyle;rounded=0;orthogonalLoop=1;jettySize=auto;html=1;exitX=0;exitY=0.5;exitDx=0;exitDy=0;exitPerimeter=0;entryX=0.5;entryY=0;entryDx=0;entryDy=0;entryPerimeter=0;" edge="1" parent="WIyWlLk6GJQsqaUBKTNV-1" source="nZmrJq0x39vUf4YxutHX-11" target="nZmrJq0x39vUf4YxutHX-61">
          <mxGeometry relative="1" as="geometry" />
        </mxCell>
        <mxCell id="nZmrJq0x39vUf4YxutHX-11" value="服务器A" style="strokeWidth=2;html=1;shape=mxgraph.flowchart.direct_data;whiteSpace=wrap;rotation=-90;" vertex="1" parent="WIyWlLk6GJQsqaUBKTNV-1">
          <mxGeometry x="-290" y="820" width="100" height="60" as="geometry" />
        </mxCell>
        <mxCell id="nZmrJq0x39vUf4YxutHX-15" style="edgeStyle=orthogonalEdgeStyle;rounded=0;orthogonalLoop=1;jettySize=auto;html=1;exitX=0.5;exitY=1;exitDx=0;exitDy=0;entryX=1;entryY=0.5;entryDx=0;entryDy=0;entryPerimeter=0;" edge="1" parent="WIyWlLk6GJQsqaUBKTNV-1" source="nZmrJq0x39vUf4YxutHX-13" target="nZmrJq0x39vUf4YxutHX-11">
          <mxGeometry relative="1" as="geometry" />
        </mxCell>
        <mxCell id="nZmrJq0x39vUf4YxutHX-13" value="主动socket连接服务器" style="rounded=0;whiteSpace=wrap;html=1;" vertex="1" parent="WIyWlLk6GJQsqaUBKTNV-1">
          <mxGeometry x="-300" y="620" width="120" height="60" as="geometry" />
        </mxCell>
        <mxCell id="nZmrJq0x39vUf4YxutHX-23" style="edgeStyle=orthogonalEdgeStyle;rounded=0;orthogonalLoop=1;jettySize=auto;html=1;" edge="1" parent="WIyWlLk6GJQsqaUBKTNV-1" source="nZmrJq0x39vUf4YxutHX-17">
          <mxGeometry relative="1" as="geometry">
            <mxPoint x="495" y="1207.5" as="targetPoint" />
            <Array as="points" />
          </mxGeometry>
        </mxCell>
        <mxCell id="nZmrJq0x39vUf4YxutHX-24" value="否" style="edgeLabel;html=1;align=center;verticalAlign=middle;resizable=0;points=[];" vertex="1" connectable="0" parent="nZmrJq0x39vUf4YxutHX-23">
          <mxGeometry x="-0.4923" y="2" relative="1" as="geometry">
            <mxPoint as="offset" />
          </mxGeometry>
        </mxCell>
        <mxCell id="nZmrJq0x39vUf4YxutHX-49" style="edgeStyle=orthogonalEdgeStyle;rounded=0;orthogonalLoop=1;jettySize=auto;html=1;exitX=1;exitY=0.5;exitDx=0;exitDy=0;exitPerimeter=0;entryX=0.5;entryY=0;entryDx=0;entryDy=0;" edge="1" parent="WIyWlLk6GJQsqaUBKTNV-1" source="nZmrJq0x39vUf4YxutHX-17">
          <mxGeometry relative="1" as="geometry">
            <mxPoint x="730" y="1207.5" as="targetPoint" />
          </mxGeometry>
        </mxCell>
        <mxCell id="nZmrJq0x39vUf4YxutHX-50" value="是" style="edgeLabel;html=1;align=center;verticalAlign=middle;resizable=0;points=[];" vertex="1" connectable="0" parent="nZmrJq0x39vUf4YxutHX-49">
          <mxGeometry x="0.2519" relative="1" as="geometry">
            <mxPoint as="offset" />
          </mxGeometry>
        </mxCell>
        <mxCell id="nZmrJq0x39vUf4YxutHX-17" value="&lt;span&gt;定时心跳，根据IP查询数据库是否录入数据&lt;/span&gt;" style="strokeWidth=2;html=1;shape=mxgraph.flowchart.decision;whiteSpace=wrap;" vertex="1" parent="WIyWlLk6GJQsqaUBKTNV-1">
          <mxGeometry x="370" y="955" width="250" height="150" as="geometry" />
        </mxCell>
        <mxCell id="nZmrJq0x39vUf4YxutHX-40" style="edgeStyle=orthogonalEdgeStyle;rounded=0;orthogonalLoop=1;jettySize=auto;html=1;exitX=0.5;exitY=1;exitDx=0;exitDy=0;exitPerimeter=0;entryX=1;entryY=0.5;entryDx=0;entryDy=0;entryPerimeter=0;" edge="1" parent="WIyWlLk6GJQsqaUBKTNV-1" source="nZmrJq0x39vUf4YxutHX-27" target="nZmrJq0x39vUf4YxutHX-39">
          <mxGeometry relative="1" as="geometry" />
        </mxCell>
        <mxCell id="nZmrJq0x39vUf4YxutHX-27" value="web" style="strokeWidth=2;html=1;shape=mxgraph.flowchart.direct_data;whiteSpace=wrap;" vertex="1" parent="WIyWlLk6GJQsqaUBKTNV-1">
          <mxGeometry x="-530" y="850" width="80" height="60" as="geometry" />
        </mxCell>
        <mxCell id="nZmrJq0x39vUf4YxutHX-35" style="edgeStyle=orthogonalEdgeStyle;rounded=0;orthogonalLoop=1;jettySize=auto;html=1;exitX=0.5;exitY=1;exitDx=0;exitDy=0;entryX=0.5;entryY=0;entryDx=0;entryDy=0;" edge="1" parent="WIyWlLk6GJQsqaUBKTNV-1" source="nZmrJq0x39vUf4YxutHX-30" target="nZmrJq0x39vUf4YxutHX-34">
          <mxGeometry relative="1" as="geometry" />
        </mxCell>
        <mxCell id="nZmrJq0x39vUf4YxutHX-30" value="工作人员" style="shape=actor;whiteSpace=wrap;html=1;" vertex="1" parent="WIyWlLk6GJQsqaUBKTNV-1">
          <mxGeometry x="-550" y="610" width="120" height="80" as="geometry" />
        </mxCell>
        <mxCell id="nZmrJq0x39vUf4YxutHX-36" style="edgeStyle=orthogonalEdgeStyle;rounded=0;orthogonalLoop=1;jettySize=auto;html=1;exitX=0.5;exitY=1;exitDx=0;exitDy=0;" edge="1" parent="WIyWlLk6GJQsqaUBKTNV-1" source="nZmrJq0x39vUf4YxutHX-34" target="nZmrJq0x39vUf4YxutHX-27">
          <mxGeometry relative="1" as="geometry" />
        </mxCell>
        <mxCell id="nZmrJq0x39vUf4YxutHX-34" value="手动传输参数" style="verticalLabelPosition=middle;verticalAlign=middle;html=1;shape=trapezoid;perimeter=trapezoidPerimeter;whiteSpace=wrap;size=0.23;arcSize=10;flipV=1;labelPosition=center;align=center;" vertex="1" parent="WIyWlLk6GJQsqaUBKTNV-1">
          <mxGeometry x="-540" y="730" width="100" height="60" as="geometry" />
        </mxCell>
        <mxCell id="nZmrJq0x39vUf4YxutHX-39" value="服务器A&lt;br&gt;" style="strokeWidth=2;html=1;shape=mxgraph.flowchart.direct_data;whiteSpace=wrap;rotation=-90;" vertex="1" parent="WIyWlLk6GJQsqaUBKTNV-1">
          <mxGeometry x="-540" y="1010" width="100" height="60" as="geometry" />
        </mxCell>
        <mxCell id="nZmrJq0x39vUf4YxutHX-42" value="存入数据库" style="rounded=0;whiteSpace=wrap;html=1;" vertex="1" parent="WIyWlLk6GJQsqaUBKTNV-1">
          <mxGeometry x="-540" y="1250" width="120" height="60" as="geometry" />
        </mxCell>
        <mxCell id="nZmrJq0x39vUf4YxutHX-44" value="结束" style="strokeWidth=2;html=1;shape=mxgraph.flowchart.terminator;whiteSpace=wrap;" vertex="1" parent="WIyWlLk6GJQsqaUBKTNV-1">
          <mxGeometry x="-290" y="1530" width="100" height="60" as="geometry" />
        </mxCell>
        <mxCell id="nZmrJq0x39vUf4YxutHX-58" style="edgeStyle=orthogonalEdgeStyle;rounded=0;orthogonalLoop=1;jettySize=auto;html=1;entryX=0.5;entryY=0;entryDx=0;entryDy=0;" edge="1" parent="WIyWlLk6GJQsqaUBKTNV-1" source="nZmrJq0x39vUf4YxutHX-51" target="nZmrJq0x39vUf4YxutHX-55">
          <mxGeometry relative="1" as="geometry" />
        </mxCell>
        <mxCell id="nZmrJq0x39vUf4YxutHX-51" value="服务器A" style="strokeWidth=2;html=1;shape=mxgraph.flowchart.direct_data;whiteSpace=wrap;rotation=-90;" vertex="1" parent="WIyWlLk6GJQsqaUBKTNV-1">
          <mxGeometry x="680" y="1227.5" width="100" height="60" as="geometry" />
        </mxCell>
        <mxCell id="nZmrJq0x39vUf4YxutHX-57" style="edgeStyle=orthogonalEdgeStyle;rounded=0;orthogonalLoop=1;jettySize=auto;html=1;entryX=0.5;entryY=0;entryDx=0;entryDy=0;" edge="1" parent="WIyWlLk6GJQsqaUBKTNV-1" source="nZmrJq0x39vUf4YxutHX-52" target="nZmrJq0x39vUf4YxutHX-56">
          <mxGeometry relative="1" as="geometry" />
        </mxCell>
        <mxCell id="nZmrJq0x39vUf4YxutHX-52" value="服务器A" style="strokeWidth=2;html=1;shape=mxgraph.flowchart.direct_data;whiteSpace=wrap;rotation=-90;" vertex="1" parent="WIyWlLk6GJQsqaUBKTNV-1">
          <mxGeometry x="445" y="1227.5" width="100" height="60" as="geometry" />
        </mxCell>
        <mxCell id="nZmrJq0x39vUf4YxutHX-60" style="edgeStyle=orthogonalEdgeStyle;rounded=0;orthogonalLoop=1;jettySize=auto;html=1;entryX=1;entryY=0.5;entryDx=0;entryDy=0;entryPerimeter=0;" edge="1" parent="WIyWlLk6GJQsqaUBKTNV-1" source="nZmrJq0x39vUf4YxutHX-55" target="nZmrJq0x39vUf4YxutHX-44">
          <mxGeometry relative="1" as="geometry">
            <Array as="points">
              <mxPoint x="260" y="1560" />
            </Array>
          </mxGeometry>
        </mxCell>
        <mxCell id="nZmrJq0x39vUf4YxutHX-55" value="继续保持长连接" style="rounded=0;whiteSpace=wrap;html=1;" vertex="1" parent="WIyWlLk6GJQsqaUBKTNV-1">
          <mxGeometry x="670" y="1417.5" width="120" height="60" as="geometry" />
        </mxCell>
        <mxCell id="nZmrJq0x39vUf4YxutHX-59" style="edgeStyle=orthogonalEdgeStyle;rounded=0;orthogonalLoop=1;jettySize=auto;html=1;entryX=1;entryY=0.5;entryDx=0;entryDy=0;entryPerimeter=0;" edge="1" parent="WIyWlLk6GJQsqaUBKTNV-1" source="nZmrJq0x39vUf4YxutHX-56" target="nZmrJq0x39vUf4YxutHX-44">
          <mxGeometry relative="1" as="geometry" />
        </mxCell>
        <mxCell id="nZmrJq0x39vUf4YxutHX-56" value="服务器断开当前IP长连接，并将IP拉入黑名单" style="rounded=0;whiteSpace=wrap;html=1;" vertex="1" parent="WIyWlLk6GJQsqaUBKTNV-1">
          <mxGeometry x="435" y="1417.5" width="120" height="60" as="geometry" />
        </mxCell>
        <mxCell id="nZmrJq0x39vUf4YxutHX-65" style="edgeStyle=orthogonalEdgeStyle;rounded=0;orthogonalLoop=1;jettySize=auto;html=1;entryX=0;entryY=0.5;entryDx=0;entryDy=0;" edge="1" parent="WIyWlLk6GJQsqaUBKTNV-1" source="nZmrJq0x39vUf4YxutHX-61" target="nZmrJq0x39vUf4YxutHX-64">
          <mxGeometry relative="1" as="geometry" />
        </mxCell>
        <mxCell id="nZmrJq0x39vUf4YxutHX-66" value="否t" style="edgeLabel;html=1;align=center;verticalAlign=middle;resizable=0;points=[];" vertex="1" connectable="0" parent="nZmrJq0x39vUf4YxutHX-65">
          <mxGeometry x="-0.1676" y="2" relative="1" as="geometry">
            <mxPoint as="offset" />
          </mxGeometry>
        </mxCell>
        <mxCell id="nZmrJq0x39vUf4YxutHX-68" style="edgeStyle=orthogonalEdgeStyle;rounded=0;orthogonalLoop=1;jettySize=auto;html=1;entryX=0.5;entryY=0;entryDx=0;entryDy=0;" edge="1" parent="WIyWlLk6GJQsqaUBKTNV-1" source="nZmrJq0x39vUf4YxutHX-61" target="nZmrJq0x39vUf4YxutHX-67">
          <mxGeometry relative="1" as="geometry" />
        </mxCell>
        <mxCell id="nZmrJq0x39vUf4YxutHX-61" value="查询ip是否在黑名单" style="strokeWidth=2;html=1;shape=mxgraph.flowchart.decision;whiteSpace=wrap;" vertex="1" parent="WIyWlLk6GJQsqaUBKTNV-1">
          <mxGeometry x="-395" y="980" width="310" height="100" as="geometry" />
        </mxCell>
        <mxCell id="nZmrJq0x39vUf4YxutHX-69" style="edgeStyle=orthogonalEdgeStyle;rounded=0;orthogonalLoop=1;jettySize=auto;html=1;" edge="1" parent="WIyWlLk6GJQsqaUBKTNV-1" source="nZmrJq0x39vUf4YxutHX-64" target="nZmrJq0x39vUf4YxutHX-17">
          <mxGeometry relative="1" as="geometry" />
        </mxCell>
        <mxCell id="nZmrJq0x39vUf4YxutHX-64" value="建立长连接" style="rounded=0;whiteSpace=wrap;html=1;" vertex="1" parent="WIyWlLk6GJQsqaUBKTNV-1">
          <mxGeometry x="100" y="1000" width="120" height="60" as="geometry" />
        </mxCell>
        <mxCell id="nZmrJq0x39vUf4YxutHX-67" value="拒绝连接" style="rounded=0;whiteSpace=wrap;html=1;" vertex="1" parent="WIyWlLk6GJQsqaUBKTNV-1">
          <mxGeometry x="-300" y="1250" width="120" height="60" as="geometry" />
        </mxCell>
      </root>
    </mxGraphModel>
  </diagram>
</mxfile>
